<svg width="32" height="32" viewBox="0 0 32 32" fill="none" xmlns="http://www.w3.org/2000/svg">
<g id="AI Avatar">
<circle id="Ellipse 136" cx="16" cy="16" r="16" fill="#1E1E1E"/>
<g id="Vector" filter="url(#filter0_ddi_449_4605)">
<path d="M20.4319 13.4819C20.3795 13.4819 20.3349 13.4714 20.2981 13.4504C20.2614 13.4294 20.2325 13.3927 20.2115 13.3403L19.755 12.2708L18.6056 11.7676C18.5532 11.7466 18.5164 11.7178 18.4954 11.6811C18.4744 11.6444 18.464 11.5998 18.464 11.5474C18.464 11.4949 18.4744 11.4504 18.4954 11.4137C18.5164 11.377 18.5532 11.3482 18.6056 11.3272L19.755 10.8396L20.2115 9.81733C20.2325 9.7649 20.2614 9.72821 20.2981 9.70724C20.3349 9.68627 20.3795 9.67578 20.4319 9.67578C20.4844 9.67578 20.529 9.68627 20.5658 9.70724C20.6025 9.72821 20.6314 9.7649 20.6524 9.81733L21.1089 10.8396L22.2582 11.3272C22.3107 11.3482 22.3475 11.377 22.3685 11.4137C22.3894 11.4504 22.3999 11.4949 22.3999 11.5474C22.3999 11.5998 22.3894 11.6444 22.3685 11.6811C22.3475 11.7178 22.3107 11.7466 22.2582 11.7676L21.1089 12.2708L20.6524 13.3403C20.6314 13.3927 20.6025 13.4294 20.5658 13.4504C20.529 13.4714 20.4844 13.4819 20.4319 13.4819ZM20.4319 22.8555C20.39 22.8555 20.348 22.845 20.306 22.8241C20.264 22.8031 20.2325 22.7664 20.2115 22.714L19.755 21.6917L18.6214 21.2041C18.5689 21.1832 18.5322 21.1543 18.5112 21.1176C18.4902 21.0809 18.4797 21.0364 18.4797 20.9839C18.4797 20.9315 18.4902 20.887 18.5112 20.8503C18.5322 20.8136 18.5689 20.7847 18.6214 20.7638L19.755 20.2762L20.2115 19.191C20.2325 19.1386 20.2614 19.1019 20.2981 19.0809C20.3349 19.0599 20.3795 19.0494 20.4319 19.0494C20.4844 19.0494 20.529 19.0599 20.5658 19.0809C20.6025 19.1019 20.6314 19.1386 20.6524 19.191L21.1089 20.2762L22.2425 20.7638C22.295 20.7847 22.3317 20.8136 22.3527 20.8503C22.3737 20.887 22.3842 20.9315 22.3842 20.9839C22.3842 21.0364 22.3737 21.0809 22.3527 21.1176C22.3317 21.1543 22.295 21.1832 22.2425 21.2041L21.1089 21.6917L20.6524 22.714C20.6314 22.7664 20.5999 22.8031 20.5579 22.8241C20.5159 22.845 20.4739 22.8555 20.4319 22.8555ZM13.5203 20.1347C13.4364 20.1347 13.355 20.1111 13.2763 20.0639C13.1976 20.0167 13.1372 19.9512 13.0953 19.8673L12.0719 17.6811L9.86775 16.6903C9.78378 16.6484 9.71818 16.5881 9.67095 16.5094C9.62371 16.4308 9.6001 16.3495 9.6001 16.2657C9.6001 16.1818 9.62371 16.1005 9.67095 16.0219C9.71818 15.9432 9.78378 15.883 9.86775 15.841L12.0719 14.8502L13.0953 12.6798C13.1372 12.5854 13.1976 12.5146 13.2763 12.4674C13.355 12.4203 13.4364 12.3967 13.5203 12.3967C13.6043 12.3967 13.6857 12.4203 13.7644 12.4674C13.8431 12.5146 13.9034 12.5801 13.9454 12.664L14.9845 14.8502L17.1729 15.841C17.2674 15.883 17.3383 15.9432 17.3855 16.0219C17.4327 16.1005 17.4563 16.1818 17.4563 16.2657C17.4563 16.3495 17.4327 16.4308 17.3855 16.5094C17.3383 16.5881 17.2674 16.6484 17.1729 16.6903L14.9845 17.6811L13.9454 19.8673C13.9034 19.9616 13.8431 20.0298 13.7644 20.0717C13.6857 20.1137 13.6043 20.1347 13.5203 20.1347Z" fill="url(#paint0_linear_449_4605)" shape-rendering="crispEdges"/>
</g>
</g>
<defs>
<filter id="filter0_ddi_449_4605" x="4.50668" y="5.22636" width="22.4012" height="23.6592" filterUnits="userSpaceOnUse" color-interpolation-filters="sRGB">
<feFlood flood-opacity="0" result="BackgroundImageFix"/>
<feColorMatrix in="SourceAlpha" type="matrix" values="0 0 0 0 0 0 0 0 0 0 0 0 0 0 0 0 0 0 127 0" result="hardAlpha"/>
<feOffset dx="-1.05381" dy="1.99053"/>
<feGaussianBlur stdDeviation="2.0198"/>
<feComposite in2="hardAlpha" operator="out"/>
<feColorMatrix type="matrix" values="0 0 0 0 0.0506089 0 0 0 0 0.0159861 0 0 0 0 0.191833 0 0 0 0.25 0"/>
<feBlend mode="normal" in2="BackgroundImageFix" result="effect1_dropShadow_449_4605"/>
<feColorMatrix in="SourceAlpha" type="matrix" values="0 0 0 0 0 0 0 0 0 0 0 0 0 0 0 0 0 0 127 0" result="hardAlpha"/>
<feOffset dx="0.995265" dy="-0.93672"/>
<feGaussianBlur stdDeviation="1.75635"/>
<feComposite in2="hardAlpha" operator="out"/>
<feColorMatrix type="matrix" values="0 0 0 0 1 0 0 0 0 1 0 0 0 0 1 0 0 0 0.35 0"/>
<feBlend mode="normal" in2="effect1_dropShadow_449_4605" result="effect2_dropShadow_449_4605"/>
<feBlend mode="normal" in="SourceGraphic" in2="effect2_dropShadow_449_4605" result="shape"/>
<feColorMatrix in="SourceAlpha" type="matrix" values="0 0 0 0 0 0 0 0 0 0 0 0 0 0 0 0 0 0 127 0" result="hardAlpha"/>
<feOffset dy="2.45889"/>
<feGaussianBlur stdDeviation="1.55144"/>
<feComposite in2="hardAlpha" operator="arithmetic" k2="-1" k3="1"/>
<feColorMatrix type="matrix" values="0 0 0 0 1 0 0 0 0 1 0 0 0 0 1 0 0 0 1 0"/>
<feBlend mode="normal" in2="shape" result="effect3_innerShadow_449_4605"/>
</filter>
<linearGradient id="paint0_linear_449_4605" x1="18.2375" y1="15.8795" x2="16.2546" y2="25.0976" gradientUnits="userSpaceOnUse">
<stop stop-color="white" stop-opacity="0.96"/>
<stop offset="1" stop-color="white" stop-opacity="0.23"/>
</linearGradient>
</defs>
</svg>
