<svg width="24" height="14" viewBox="0 0 24 14" fill="none" xmlns="http://www.w3.org/2000/svg">
<g id="icon / arrow_left_long">
<path id="Arrow" d="M0.397325 8.00793L5.13001 13.5967C5.6168 14.1396 6.40107 14.1396 6.86082 13.5648C7.32057 12.9899 7.32057 12.0957 6.86082 11.5528L4.23756 8.45503L22.783 8.45504C23.4591 8.45504 24 7.78439 24 6.98599C24 6.18759 23.4591 5.54887 22.783 5.54887L4.23756 5.54887L6.86082 2.45108C7.32057 1.87624 7.32057 0.950093 6.83378 0.407183C6.34699 -0.135728 5.58976 -0.135728 5.13001 0.407182L0.397326 5.99597C-0.0894642 6.53888 -0.143553 7.43308 0.316192 8.00793C0.343237 8.00793 0.343238 8.03987 0.397325 8.00793Z" fill="#0C0C0C"/>
</g>
</svg>
