<svg width="24" height="14" viewBox="0 0 24 14" fill="none" xmlns="http://www.w3.org/2000/svg">
<g id="icon / arrow_left_long">
<path id="Arrow" d="M23.6027 5.99207L18.87 0.40328C18.3832 -0.139631 17.5989 -0.139631 17.1392 0.435216C16.6794 1.01006 16.6794 1.90427 17.1392 2.44718L19.7624 5.54496L1.21697 5.54496C0.540877 5.54496 -1.00915e-06 6.21561 -1.13877e-06 7.01401C-1.2684e-06 7.81241 0.540877 8.45113 1.21697 8.45113L19.7624 8.45113L17.1392 11.5489C16.6794 12.1238 16.6794 13.0499 17.1662 13.5928C17.653 14.1357 18.4102 14.1357 18.87 13.5928L23.6027 8.00403C24.0895 7.46112 24.1436 6.56691 23.6838 5.99207C23.6568 5.99207 23.6568 5.96013 23.6027 5.99207Z" fill="#0C0C0C"/>
</g>
</svg>
