<svg width="32" height="32" viewBox="0 0 32 32" fill="none" xmlns="http://www.w3.org/2000/svg">
<g id="instagram" clip-path="url(#clip0_609_10436)">
<path id="Vector" d="M2 9.00011C2 7.14356 2.73751 5.36306 4.05028 4.05028C5.36306 2.73751 7.14356 2 9.00011 2H23.0003C24.8569 2 26.6374 2.73751 27.9501 4.05028C29.2629 5.36306 30.0004 7.14356 30.0004 9.00011V23.0003C30.0004 24.8569 29.2629 26.6374 27.9501 27.9501C26.6374 29.2629 24.8569 30.0004 23.0003 30.0004H9.00011C7.14356 30.0004 5.36306 29.2629 4.05028 27.9501C2.73751 26.6374 2 24.8569 2 23.0003V9.00011Z" stroke="#0C0C0C" stroke-width="2.62504" stroke-linecap="round" stroke-linejoin="round"/>
<path id="Vector_2" d="M10.751 16.0011C10.751 17.3935 11.3041 18.7288 12.2887 19.7134C13.2733 20.698 14.6087 21.2511 16.0011 21.2511C17.3935 21.2511 18.7289 20.698 19.7135 19.7134C20.698 18.7288 21.2512 17.3935 21.2512 16.0011C21.2512 14.6086 20.698 13.2733 19.7135 12.2887C18.7289 11.3041 17.3935 10.751 16.0011 10.751C14.6087 10.751 13.2733 11.3041 12.2887 12.2887C11.3041 13.2733 10.751 14.6086 10.751 16.0011Z" stroke="#0C0C0C" stroke-width="2.62504" stroke-linecap="round" stroke-linejoin="round"/>
<path id="Vector_3" d="M23.875 8.12598V8.14337" stroke="#0C0C0C" stroke-width="2.62504" stroke-linecap="round" stroke-linejoin="round"/>
</g>
<defs>
<clipPath id="clip0_609_10436">
<rect width="32" height="32" fill="white"/>
</clipPath>
</defs>
</svg>
