<?xml version="1.0" encoding="utf-8"?>
<!-- Generator: Adobe Illustrator 23.0.1, SVG Export Plug-In . SVG Version: 6.00 Build 0)  -->
<svg version="1.1" width="32" height="32" xmlns="http://www.w3.org/2000/svg" xmlns:xlink="http://www.w3.org/1999/xlink" x="0px" y="0px"
	 viewBox="165 68 340 350.2" style="enable-background:new 140 72 340 350.2;" xml:space="preserve">
<style type="text/css">
	.st0{fill:none;stroke:#000000;stroke-width:15;stroke-linecap:round;stroke-linejoin:round;}
	.st1{fill:none;stroke:#000000;stroke-width:12;stroke-linecap:round;stroke-linejoin:round;stroke-miterlimit:10;}
</style>
<g id="Layer_1">
	
		<image style="overflow:visible;opacity:0.24;enable-background:new    ;" width="512" height="512" xlink:href="../../../../../Downloads/linkedin (3).png"  transform="matrix(0.4275 0 0 0.4275 229.087 130.4783)">
	</image>
	<path class="st0" d="M333.8,412.1h-91.7c-8.6,0-17.3-1.2-25.4-4c-48.9-16.4-48.3-69.6-48.3-69.6V155.4c0-27.8,14.6-53.7,38.8-67.3
		c0.6-0.3,1.2-0.7,1.8-1c12.6-6.7,26.8-10,41.2-10h83.7h83.7c14.3,0,28.5,3.3,41.2,10c0.6,0.3,1.2,0.6,1.8,1
		c24.2,13.6,38.8,39.6,38.8,67.3v183.1c0,0,0.6,53.2-48.3,69.6c-8.2,2.7-16.8,4-25.4,4H333.8z"/>
</g>
<g id="Layer_2">
	<rect x="238.8" y="205.2" class="st1" width="42.3" height="137.7"/>
	<circle class="st1" cx="259.9" cy="157.2" r="21.1"/>
	<path class="st1" d="M308.7,205.2h40.2V216c0,0,1.3-0.9,3.6-2.2c37.4-21.1,84,5.3,85.5,48.3c0.1,1.5,0.1,3.1,0.1,4.7l0.1,76.2
		h-39.7l-1.9-76c-0.2-6.7-3-13.2-8.1-17.6c-1-0.9-2.2-1.7-3.4-2.4c-7.9-4.4-17.8-3.9-25.3,1.3c-0.3,0.2-0.6,0.4-0.9,0.6
		c-6.1,4.6-9.6,11.9-9.6,19.5l-0.8,74.6h-39.7V205.2z"/>
</g>
</svg>
