<svg width="124" height="48" viewBox="0 0 124 48" fill="none" xmlns="http://www.w3.org/2000/svg">
<g id="logo" clip-path="url(#clip0_378_484)">
<g id="roadmap">
<path id="Vector" d="M40.8543 26.0515V21.9503C43.4673 21.6615 45.4996 19.4665 45.4996 16.8093C45.4996 13.9211 43.177 11.6106 40.2736 11.6106C38.5317 11.6106 37.0219 12.477 36.0348 13.7478L24.77 7.27826C25.0603 6.64286 25.1765 5.94969 25.1765 5.19876C25.1765 2.31056 22.8538 0 19.9505 0C17.0472 0 14.7246 2.31056 14.7246 5.19876C14.7246 5.42981 14.7246 5.60311 14.7826 5.83416L5.96648 8.51613L1.94556 7.87097L3.24263 11.7419L5.96648 8.51613L7.26355 9.24224L15.0149 7.0472C15.7698 9.06894 17.6859 10.4553 19.9505 10.4553C21.6925 10.4553 23.2022 9.58882 24.1893 8.31801L35.5122 14.7298C35.2219 15.3075 35.0477 16.0006 35.0477 16.7516C35.0477 19.4087 37.08 21.6037 39.693 21.8925V25.9938C37.08 26.2826 35.0477 28.4776 35.0477 31.1348C35.0477 32.0012 35.28 32.8099 35.6284 33.5031L26.8604 39.395C25.8733 38.2397 24.4797 37.5466 22.8538 37.5466C20.9957 37.5466 19.4279 38.4708 18.4989 39.9149L10.3696 35.8714C10.6019 35.2938 10.718 34.7161 10.718 34.0807C10.718 31.1925 8.39537 28.882 5.49206 28.882C2.58876 28.882 0.266113 31.1925 0.266113 34.0807C0.266113 36.9689 2.58876 39.2795 5.49206 39.2795C7.35018 39.2795 8.91796 38.3553 9.84702 36.9112L17.9763 40.9547C17.744 41.5323 17.6279 42.1099 17.6279 42.7453C17.6279 45.6335 19.9505 47.9441 22.8538 47.9441C25.7571 47.9441 28.0798 45.6335 28.0798 42.7453C28.0798 41.8789 27.8475 41.0702 27.4991 40.377L36.2671 34.5429C37.2542 35.6981 38.6478 36.3913 40.2736 36.3913C43.177 36.3913 45.4996 34.0807 45.4996 31.1925C45.4996 28.5354 43.4673 26.3404 40.8543 26.0515ZM3.50205 10.5806L2.85351 8.64516L4.92882 8.90323L3.50205 10.5806ZM23.7248 6.70062C23.6087 7.0472 23.3764 7.39379 23.1442 7.68261C22.3893 8.60683 21.228 9.24224 19.9505 9.24224C18.2666 9.24224 16.7569 8.20248 16.1762 6.70062C16.0601 6.35404 15.944 5.94969 15.8859 5.60311C15.8859 5.48758 15.8859 5.37205 15.8859 5.25652C15.8859 3.00373 17.6859 1.21304 19.9505 1.21304C22.2151 1.21304 24.0151 3.00373 24.0151 5.25652C24.0151 5.71863 23.899 6.23851 23.7248 6.70062ZM9.26636 35.3516C9.15022 35.6981 8.97603 36.0447 8.74376 36.3913C7.9889 37.4311 6.76951 38.1242 5.43399 38.1242C3.16942 38.1242 1.36937 36.3335 1.36937 34.0807C1.36937 31.8279 3.16942 30.0373 5.43399 30.0373C7.69857 30.0373 9.49862 31.8279 9.49862 34.0807C9.49862 34.5429 9.44056 34.9472 9.26636 35.3516ZM22.8538 46.7888C20.5892 46.7888 18.7892 44.9981 18.7892 42.7453C18.7892 42.2832 18.8473 41.8789 19.0215 41.4745C19.1376 41.1279 19.3118 40.7814 19.5441 40.4348C20.2989 39.395 21.5183 38.7019 22.8538 38.7019C24.0732 38.7019 25.1184 39.2217 25.8733 40.0304C26.1055 40.3193 26.3378 40.6658 26.512 41.0124C26.7443 41.5323 26.9185 42.1099 26.9185 42.7453C26.9185 44.9981 25.1184 46.7888 22.8538 46.7888ZM36.209 16.7516C36.209 16.2317 36.3252 15.7118 36.4994 15.2497C36.6155 14.9031 36.8478 14.5565 37.08 14.2677C37.8349 13.3435 38.9962 12.7081 40.2736 12.7081C42.5382 12.7081 44.3383 14.4988 44.3383 16.7516C44.3383 18.7733 42.8286 20.4484 40.8543 20.7373C40.6801 20.7373 40.4478 20.795 40.2736 20.795C40.0994 20.795 39.8672 20.795 39.693 20.7373C37.7187 20.4484 36.209 18.7733 36.209 16.7516ZM40.2736 35.236C39.0543 35.236 38.0091 34.7161 37.2542 33.9075C37.0219 33.6186 36.7897 33.272 36.6155 32.9255C36.3832 32.4056 36.209 31.8279 36.209 31.1925C36.209 29.1708 37.7187 27.4956 39.693 27.2068C39.8672 27.2068 40.0994 27.1491 40.2736 27.1491C40.4478 27.1491 40.6801 27.1491 40.8543 27.2068C42.8286 27.4956 44.3383 29.1708 44.3383 31.1925C44.3383 33.4453 42.5382 35.236 40.2736 35.236Z" fill="#0C0C0C"/>
<path id="Ellipse 1 (Stroke)" fill-rule="evenodd" clip-rule="evenodd" d="M3.6318 11.742C4.99287 11.742 6.09623 10.6444 6.09623 9.29039C6.09623 7.9364 4.99287 6.83878 3.6318 6.83878C2.27073 6.83878 1.16736 7.9364 1.16736 9.29039C1.16736 10.6444 2.27073 11.742 3.6318 11.742ZM3.6318 12.9033C5.63759 12.9033 7.2636 11.2857 7.2636 9.29039C7.2636 7.29504 5.63759 5.67749 3.6318 5.67749C1.62601 5.67749 0 7.29504 0 9.29039C0 11.2857 1.62601 12.9033 3.6318 12.9033Z" fill="#0C0C0C"/>
<path id="Vector_2" d="M5.43407 31.1926C3.80822 31.1926 2.53076 32.4634 2.53076 34.0808C2.53076 35.6982 3.80822 36.969 5.43407 36.969C7.05992 36.969 8.33737 35.6982 8.33737 34.0808C8.33737 32.4634 7.05992 31.1926 5.43407 31.1926ZM5.43407 35.8137C4.44694 35.8137 3.69208 35.0628 3.69208 34.0808C3.69208 33.0988 4.44694 32.3479 5.43407 32.3479C6.42119 32.3479 7.17605 33.0988 7.17605 34.0808C7.17605 35.0628 6.42119 35.8137 5.43407 35.8137Z" fill="#0C0C0C"/>
</g>
<g id="acg">
<path id="Vector_3" d="M118.011 19.363C117.48 18.394 116.75 17.6563 115.82 17.1498C114.89 16.6433 113.806 16.3901 112.566 16.3901C111.193 16.3901 109.976 16.6984 108.913 17.315C107.851 17.9316 107.021 18.8124 106.423 19.9576C105.825 21.1027 105.526 22.424 105.526 23.9214C105.526 25.4629 105.825 26.8062 106.423 27.9514C107.043 29.0965 107.895 29.9773 108.98 30.5939C110.064 31.2105 111.326 31.5188 112.765 31.5188C114.536 31.5188 115.986 31.0564 117.115 30.1315C118.244 29.1846 118.986 27.8743 119.34 26.2006H111.37V22.6662H123.922V26.6961C123.612 28.3037 122.948 29.7902 121.93 31.1555C120.911 32.5208 119.594 33.6219 117.978 34.4587C116.384 35.2735 114.591 35.6809 112.599 35.6809C110.363 35.6809 108.338 35.1854 106.523 34.1945C104.729 33.1815 103.313 31.7831 102.272 29.9994C101.254 28.2156 100.745 26.1896 100.745 23.9214C100.745 21.6532 101.254 19.6272 102.272 17.8435C103.313 16.0377 104.729 14.6394 106.523 13.6484C108.338 12.6354 110.352 12.1289 112.566 12.1289C115.178 12.1289 117.447 12.7675 119.373 14.0448C121.299 15.3 122.627 17.0727 123.357 19.363H118.011Z" fill="#0C0C0C"/>
<path id="Vector_4" d="M75.2573 23.9214C75.2573 21.6532 75.7665 19.6272 76.7848 17.8435C77.8252 16.0377 79.2309 14.6394 81.0018 13.6484C82.7949 12.6354 84.7982 12.1289 87.0119 12.1289C89.6019 12.1289 91.8709 12.7896 93.8189 14.1108C95.767 15.4321 97.1284 17.2599 97.9031 19.5942H92.5571C92.0259 18.4931 91.2732 17.6673 90.2992 17.1168C89.3473 16.5662 88.2405 16.291 86.9787 16.291C85.6284 16.291 84.4219 16.6103 83.3594 17.2489C82.3189 17.8655 81.4999 18.7464 80.9022 19.8915C80.3266 21.0366 80.0388 22.3799 80.0388 23.9214C80.0388 25.4409 80.3266 26.7842 80.9022 27.9514C81.4999 29.0965 82.3189 29.9883 83.3594 30.627C84.4219 31.2436 85.6284 31.5519 86.9787 31.5519C88.2405 31.5519 89.3473 31.2766 90.2992 30.7261C91.2732 30.1535 92.0259 29.3167 92.5571 28.2156H97.9031C97.1284 30.5719 95.767 32.4107 93.8189 33.732C91.893 35.0313 89.624 35.6809 87.0119 35.6809C84.7982 35.6809 82.7949 35.1854 81.0018 34.1945C79.2309 33.1815 77.8252 31.7831 76.7848 29.9994C75.7665 28.2156 75.2573 26.1896 75.2573 23.9214Z" fill="#0C0C0C"/>
<path id="Vector_5" d="M66.8293 31.0893H57.5983L56.0708 35.4826H51.1897L59.5242 12.3931H64.9366L73.271 35.4826H68.3567L66.8293 31.0893ZM65.5675 27.3897L62.2138 17.7443L58.8601 27.3897H65.5675Z" fill="#0C0C0C"/>
</g>
</g>
<defs>
<clipPath id="clip0_378_484">
<rect width="124" height="48" fill="white"/>
</clipPath>
</defs>
</svg>
