<svg width="47" height="46" viewBox="0 0 47 46" fill="none" xmlns="http://www.w3.org/2000/svg">
<g id="Layer_2">
<path id="Vector" d="M41.2531 45.6722H4.64525C2.24918 45.6722 0.282593 43.7056 0.282593 41.3096V4.7017C0.282593 2.30564 2.24918 0.33905 4.64525 0.33905H40.9366C43.5135 0.33905 45.6158 2.44126 45.6158 5.01816V41.3096C45.6158 43.7056 43.6492 45.6722 41.2531 45.6722Z" stroke="black" stroke-miterlimit="10"/>
<path id="Vector_2" d="M14.0148 9.44868C16.603 7.73074 19.7111 6.73615 23.0565 6.73615C32.0983 6.73615 39.4334 14.0713 39.4334 23.113C39.4334 32.1548 32.0983 39.4786 23.0452 39.4786C18.4565 39.4786 14.2973 37.5912 11.3248 34.5396" stroke="black" stroke-width="1.13022" stroke-miterlimit="10"/>
<path id="Vector_3" d="M34.63 17.0212C37.6636 17.0212 40.1228 14.5619 40.1228 11.5283C40.1228 8.49464 37.6636 6.0354 34.63 6.0354C31.5963 6.0354 29.1371 8.49464 29.1371 11.5283C29.1371 14.5619 31.5963 17.0212 34.63 17.0212Z" fill="black"/>
<path id="Vector_4" d="M34.5283 40.1794C37.6181 40.1794 40.1229 37.6746 40.1229 34.5848C40.1229 31.495 37.6181 28.9902 34.5283 28.9902C31.4385 28.9902 28.9337 31.495 28.9337 34.5848C28.9337 37.6746 31.4385 40.1794 34.5283 40.1794Z" fill="black"/>
<path id="Vector_5" d="M11.3701 40.1794C14.4599 40.1794 16.9647 37.6746 16.9647 34.5848C16.9647 31.495 14.4599 28.9902 11.3701 28.9902C8.2803 28.9902 5.77551 31.495 5.77551 34.5848C5.77551 37.6746 8.2803 40.1794 11.3701 40.1794Z" fill="black"/>
<path id="Vector_6" d="M9.67471 16.829L5.5381 10.0815C5.5042 10.025 5.47029 9.96852 5.44769 9.91201C4.89388 8.77049 5.75285 7.43682 7.01869 7.38031L15.1111 7.00734C15.6197 6.98473 16.0944 7.23338 16.3656 7.67417L16.5352 7.94542C16.8177 8.40881 16.8403 8.99653 16.5804 9.48252L12.7489 16.7046C12.1499 17.8462 10.5337 18.0157 9.76513 16.9759C9.73122 16.9194 9.69732 16.8742 9.67471 16.829Z" fill="black"/>
</g>
</svg>
