<svg width="45" height="46" viewBox="0 0 45 46" fill="none" xmlns="http://www.w3.org/2000/svg">
<g id="Layer_2">
<path id="Vector" d="M40.0667 45.1666H4.26642C1.9232 45.1666 0 43.2434 0 40.9002V5.09985C0 2.75664 1.9232 0.833435 4.26642 0.833435H39.7573C42.2773 0.833435 44.3332 2.88927 44.3332 5.40933V40.9002C44.3332 43.2434 42.41 45.1666 40.0667 45.1666Z" fill="black"/>
<path id="Vector_2" d="M13.4292 9.74211C15.9603 8.06207 18.9998 7.08942 22.2715 7.08942C31.1138 7.08942 38.2871 14.2627 38.2871 23.1051C38.2871 31.9474 31.1138 39.1097 22.2604 39.1097C17.773 39.1097 13.7055 37.2638 10.7986 34.2795" stroke="white" stroke-width="1.13022" stroke-miterlimit="10"/>
<path id="Vector_3" d="M38.9049 11.7758C38.9049 14.7113 36.5252 17.091 33.5897 17.091C30.6542 17.091 28.2745 14.7113 28.2745 11.7758C28.2745 8.84032 30.6542 6.46062 33.5897 6.46062C36.5252 6.46062 38.9049 8.84032 38.9049 11.7758Z" fill="white" stroke="white" stroke-width="0.113022"/>
<path id="Vector_4" d="M39.2462 34.6649C39.2462 37.6553 36.822 40.0796 33.8315 40.0796C30.8411 40.0796 28.4169 37.6553 28.4169 34.6649C28.4169 31.6745 30.8411 29.2502 33.8315 29.2502C36.822 29.2502 39.2462 31.6745 39.2462 34.6649Z" fill="white" stroke="white" stroke-width="0.113022"/>
<path id="Vector_5" d="M16.2577 34.3238C16.2577 37.3142 13.8335 39.7385 10.843 39.7385C7.85257 39.7385 5.42834 37.3142 5.42834 34.3238C5.42834 31.3333 7.85257 28.9091 10.843 28.9091C13.8335 28.9091 16.2577 31.3333 16.2577 34.3238Z" fill="white" stroke="white" stroke-width="0.113022"/>
<path id="Vector_6" d="M9.23541 16.9344L9.2356 16.9343L9.23305 16.9301L5.18797 10.332C5.18792 10.3319 5.18787 10.3318 5.18783 10.3317C5.15419 10.2757 5.12364 10.2245 5.10355 10.1743L5.10369 10.1742L5.10193 10.1706C4.57949 9.09373 5.38931 7.82946 6.58996 7.77586L6.59004 7.77585L14.5038 7.41111C14.9807 7.38992 15.4256 7.62284 15.6801 8.0364L15.6803 8.03673L15.8457 8.30147C15.8458 8.30155 15.8458 8.30163 15.8459 8.30171C16.1118 8.73802 16.1329 9.29133 15.8884 9.74859L15.8883 9.74876L12.1413 16.8116L12.1412 16.8118C11.5739 17.8928 10.0462 18.0507 9.32032 17.0719C9.30712 17.05 9.29384 17.0296 9.28182 17.0111C9.27857 17.0062 9.27542 17.0013 9.27238 16.9966C9.25727 16.9733 9.24495 16.9534 9.23541 16.9344Z" fill="white" stroke="white" stroke-width="0.113022"/>
</g>
</svg>
