<?xml version="1.0" encoding="utf-8"?>
<!-- Generator: Adobe Illustrator 23.0.1, SVG Export Plug-In . SVG Version: 6.00 Build 0)  -->
<svg version="1.1" width="32" height="32" id="Layer_1" xmlns="http://www.w3.org/2000/svg" xmlns:xlink="http://www.w3.org/1999/xlink" x="0px" y="0px"
	 viewBox="140 72 340 350.2" style="enable-background:new 140 72 340 350.2;" xml:space="preserve">
<style type="text/css">
	.st0{fill:none;stroke:#000000;stroke-width:15;stroke-linecap:round;stroke-linejoin:round;}
</style>
<g>
	<path class="st0" d="M309.7,416.8h-91.7c-8.6,0-17.3-1.2-25.4-4c-48.9-16.4-48.3-69.6-48.3-69.6V160.1c0-27.8,14.6-53.7,38.8-67.3
		c0.6-0.3,1.2-0.7,1.8-1c12.6-6.7,26.8-10,41.2-10h83.7h83.7c14.3,0,28.5,3.3,41.2,10c0.6,0.3,1.2,0.6,1.8,1
		c24.2,13.6,38.8,39.6,38.8,67.3v183.1c0,0,0.6,53.2-48.3,69.6c-8.2,2.7-16.8,4-25.4,4H309.7z"/>
	<polygon class="st0" points="197.1,257.3 408.2,146.8 357.9,361.4 279.6,291.5 336.9,217.4 254.4,275.4 	"/>
</g>
</svg>
