<svg width="60" height="19" viewBox="0 0 60 19" fill="none" xmlns="http://www.w3.org/2000/svg">
<g clip-path="url(#clip0_342_2429)">
<path d="M31.0305 6.04961C30.9963 8.6858 33.4359 10.1568 35.2737 11.0315C37.1618 11.9289 37.796 12.5043 37.7885 13.3069C37.7745 14.5351 36.2824 15.0771 34.8863 15.0982C32.4504 15.135 31.0341 14.4559 29.9081 13.9422L29.0306 17.9525C30.1603 18.461 32.2521 18.9044 34.4212 18.9238C39.513 18.9238 42.8442 16.4689 42.8623 12.6628C42.8822 7.83218 36.0213 7.5648 36.0682 5.40567C36.0844 4.75097 36.724 4.05232 38.1255 3.87468C38.8193 3.78495 40.7344 3.71627 42.9056 4.69283L43.7578 0.812708C42.5902 0.397455 41.0895 -0.000171661 39.221 -0.000171661C34.4285 -0.000171661 31.0577 2.48814 31.0305 6.04961ZM51.9464 0.334045C51.0166 0.334045 50.2331 0.863756 49.8834 1.67664L42.6101 18.6388H47.6981L48.7106 15.9058H54.9281L55.5155 18.6388H60L56.0866 0.334045H51.9464ZM52.6582 5.27885L54.1266 12.1525H50.1052L52.6582 5.27885ZM24.8616 0.334274L20.8509 18.6386H25.6995L29.7082 0.333817L24.8616 0.334274ZM17.689 0.334274L12.6424 12.793L10.601 2.19948C10.3615 1.0169 9.41555 0.334045 8.36508 0.334045H0.115547L0 0.865587C1.69359 1.22453 3.61781 1.80346 4.78359 2.4229C5.49703 2.8013 5.70047 3.13208 5.93484 4.03126L9.80133 18.6388H14.925L22.7803 0.334045L17.689 0.334274Z" fill="url(#paint0_linear_342_2429)"/>
</g>
<defs>
<linearGradient id="paint0_linear_342_2429" x1="2758.44" y1="56.8854" x2="2811.94" y2="-1886.71" gradientUnits="userSpaceOnUse">
<stop stop-color="#222357"/>
<stop offset="1" stop-color="#254AA5"/>
</linearGradient>
<clipPath id="clip0_342_2429">
<rect width="60" height="19" fill="white"/>
</clipPath>
</defs>
</svg>
