<svg width="25" height="14" viewBox="0 0 25 14" fill="none" xmlns="http://www.w3.org/2000/svg">
<path d="M24.1027 5.99207L19.37 0.40328C18.8832 -0.139631 18.0989 -0.139631 17.6392 0.435216C17.1794 1.01006 17.1794 1.90427 17.6392 2.44718L20.2624 5.54496L1.71697 5.54496C1.04088 5.54496 0.499999 6.21561 0.499999 7.01401C0.499999 7.81241 1.04088 8.45113 1.71697 8.45113L20.2624 8.45113L17.6392 11.5489C17.1794 12.1238 17.1794 13.0499 17.6662 13.5928C18.153 14.1357 18.9102 14.1357 19.37 13.5928L24.1027 8.00403C24.5895 7.46112 24.6436 6.56691 24.1838 5.99207C24.1568 5.99207 24.1568 5.96013 24.1027 5.99207Z" fill="#F8F8F8"/>
</svg>
