<?xml version="1.0" encoding="utf-8"?>
<!-- Generator: Adobe Illustrator 23.0.1, SVG Export Plug-In . SVG Version: 6.00 Build 0)  -->
<svg version="1.1" id="Layer_1" xmlns="http://www.w3.org/2000/svg" xmlns:xlink="http://www.w3.org/1999/xlink" x="0px" y="0px"
	 viewBox="0 0 548.6 521.2" style="enable-background:new 0 0 548.6 521.2;" xml:space="preserve">
<style type="text/css">
	.st0{fill:#020203;}
	.st1{fill:none;stroke:#FFFFFF;stroke-width:20;stroke-miterlimit:10;}
	.st2{fill:#FFFFFF;}
	.st3{display:none;fill:#FFFFFF;}
</style>
<path class="st0" d="M436.2,461.2H112.3c-21.2,0-38.6-17.4-38.6-38.6V98.7c0-21.2,17.4-38.6,38.6-38.6h321.1
	c22.8,0,41.4,18.6,41.4,41.4v321.1C474.8,443.8,457.4,461.2,436.2,461.2z"/>
<path class="st1" d="M195.2,140.7c22.9-15.2,50.4-24,80-24c80,0,144.9,64.9,144.9,144.9s-64.9,144.9-144.9,144.9
	c-40.6,0-77.4-16.7-103.7-43.7"/>
<circle class="st2" cx="377.6" cy="159.1" r="55.7"/>
<circle class="st2" cx="-103.1" cy="143.5" r="15.6"/>
<circle class="st2" cx="-82.1" cy="132.2" r="15.6"/>
<circle class="st2" cx="-143.9" cy="202.8" r="15.6"/>
<circle class="st2" cx="-51" cy="189.8" r="15.6"/>
<circle class="st3" cx="171.8" cy="159.1" r="55.7"/>
<circle class="st2" cx="376.7" cy="363.1" r="56"/>
<circle class="st2" cx="171.8" cy="363.1" r="56"/>
<path class="st2" d="M143.6,203.6l-29-76.9c-0.2-0.6-0.5-1.3-0.6-1.9c-3.4-12.7,7.9-24.7,21-22.8l83.3,12c5.2,0.8,9.6,4.2,11.5,9.3
	l1.2,3.1c2,5.3,1.1,11.3-2.5,15.8l-53.2,66.2c-8.3,10.5-25.2,9-31-3.1C144,204.6,143.8,204.1,143.6,203.6z"/>
</svg>
